<svg width="2783" height="31" viewBox="0 0 2783 31" fill="none" xmlns="http://www.w3.org/2000/svg">
<rect width="2781" height="31" transform="translate(1)" fill="#FFF7E1"/>
<path d="M1 15.9503C1 23.6956 6.09469 30 12.2882 30C18.4818 30 23.4766 23.6956 23.4766 15.9503V15.0497C23.4766 7.30435 28.6712 1 34.8647 1C41.0583 1 46.0531 7.30435 46.0531 15.0497V15.9503C46.0531 23.6956 51.0479 30 57.2414 30C63.435 30 68.4298 23.6956 68.4298 15.9503V15.0497C68.4298 7.30435 73.6244 1 79.8179 1C86.0114 1 91.0062 7.30435 91.0062 15.0497V15.9503C91.0062 23.6956 96.001 30 102.195 30C108.388 30 113.383 23.6956 113.383 15.9503V15.0497C113.383 7.30435 118.378 1 124.771 1C130.965 1 135.959 7.30435 135.959 15.0497V15.9503C135.959 23.6956 140.954 30 147.148 30C153.341 30 158.336 23.6956 158.336 15.9503V15.0497C158.336 7.30435 163.331 1 169.724 1C175.918 1 180.913 7.30435 180.913 15.0497V15.9503C180.913 23.6956 185.907 30 192.101 30C198.294 30 203.289 23.6956 203.289 15.9503V15.0497C203.289 7.30435 208.284 1 214.677 1C220.871 1 225.866 7.30435 225.866 15.0497V15.9503C225.866 23.6956 230.861 30 237.054 30C243.248 30 248.242 23.6956 248.242 15.9503V15.0497C248.242 7.30435 253.437 1 259.631 1C265.824 1 270.819 7.30435 270.819 15.0497V15.9503C270.819 23.6956 275.814 30 282.007 30C288.201 30 293.196 23.6956 293.196 15.9503V15.0497C293.196 7.30435 298.39 1 304.584 1C310.777 1 315.772 7.30435 315.772 15.0497V15.9503C315.772 23.6956 320.767 30 326.96 30C333.154 30 338.149 23.6956 338.149 15.9503V15.0497C338.149 7.30435 343.343 1 349.537 1C355.73 1 360.725 7.30435 360.725 15.0497V15.9503C360.725 23.6956 365.72 30 371.914 30C378.107 30 383.102 23.6956 383.102 15.9503V15.0497C383.102 7.30435 388.297 1 394.49 1C400.684 1 405.678 7.30435 405.678 15.0497V15.9503C405.678 23.6956 410.673 30 416.867 30C423.06 30 428.055 23.6956 428.055 15.9503V15.0497C428.055 7.30435 433.25 1 439.443 1C445.637 1 450.632 7.30435 450.632 15.0497V15.9503C450.632 23.6956 455.626 30 461.82 30C468.014 30 473.008 23.6956 473.008 15.9503V15.0497C473.008 7.30435 478.203 1 484.396 1C490.59 1 495.585 7.30435 495.585 15.0497V15.9503C495.585 23.6956 500.58 30 506.773 30C512.967 30 517.961 23.6956 517.961 15.9503V15.0497C517.961 7.30435 523.156 1 529.35 1C535.543 1 540.538 7.30435 540.538 15.0497V15.9503C540.538 23.6956 545.533 30 551.726 30C557.92 30 562.915 23.6956 562.915 15.9503V15.0497C562.915 7.30435 568.109 1 574.303 1C580.496 1 585.491 7.30435 585.491 15.0497V15.9503C585.491 23.6956 590.486 30 596.68 30C602.873 30 607.868 23.6956 607.868 15.9503V15.0497C607.868 7.30435 613.062 1 619.256 1C625.45 1 630.444 7.30435 630.444 15.0497V15.9503C630.444 23.6956 635.439 30 641.633 30C647.826 30 652.821 23.6956 652.821 15.9503V15.0497C652.821 7.30435 658.016 1 664.209 1C670.403 1 675.397 7.30435 675.397 15.0497V15.9503C675.397 23.6956 680.392 30 686.586 30C692.779 30 697.774 23.6956 697.774 15.9503V15.0497C697.774 7.30435 702.969 1 709.162 1C715.356 1 720.351 7.30435 720.351 15.0497V15.9503C720.351 23.6956 725.345 30 731.539 30C737.733 30 742.727 23.6956 742.727 15.9503V15.0497C742.727 7.30435 747.922 1 754.116 1C760.309 1 765.304 7.30435 765.304 15.0497V15.9503C765.304 23.6956 770.299 30 776.492 30C782.686 30 787.681 23.6956 787.681 15.9503V15.0497C787.681 7.30435 792.875 1 799.069 1C805.262 1 810.257 7.30435 810.257 15.0497V15.9503C810.257 23.6956 815.252 30 821.445 30C827.639 30 832.634 23.6956 832.634 15.9503V15.0497C832.634 7.30435 837.828 1 844.022 1C850.215 1 855.21 7.30435 855.21 15.0497V15.9503C855.21 23.6956 860.205 30 866.399 30C872.592 30 877.587 23.6956 877.587 15.9503V15.0497C877.587 7.30435 882.781 1 888.975 1C895.169 1 900.163 7.30435 900.163 15.0497V15.9503C900.163 23.6956 905.158 30 911.352 30C917.545 30 922.54 23.6956 922.54 15.9503V15.0497C922.54 7.30435 927.735 1 933.928 1C940.122 1 945.117 7.30435 945.117 15.0497V15.9503C945.117 23.6956 950.111 30 956.305 30C962.498 30 967.493 23.6956 967.493 15.9503V15.0497C967.493 7.30435 974.586 1 980.779 1C986.973 1 991.968 7.30435 991.968 15.0497V15.9503C991.968 23.6956 996.963 30 1003.16 30C1009.35 30 1014.34 23.6956 1014.34 15.9503V15.0497C1014.34 7.30435 1019.34 1 1025.53 1C1031.73 1 1036.72 7.30435 1036.72 15.0497V15.9503C1036.72 23.6956 1041.72 30 1047.91 30C1054.1 30 1059.1 23.6956 1059.1 15.9503V15.0497C1059.1 7.30435 1064.09 1 1070.29 1C1076.48 1 1081.47 7.30435 1081.47 15.0497V15.9503C1081.47 23.6956 1086.47 30 1092.66 30C1098.86 30 1103.85 23.6956 1103.85 15.9503V15.0497C1103.85 7.30435 1108.85 1 1115.04 1C1121.23 1 1126.23 7.30435 1126.23 15.0497V15.9503C1126.23 23.6956 1131.22 30 1137.42 30C1143.61 30 1148.6 23.6956 1148.6 15.9503V15.0497C1148.6 7.30435 1153.6 1 1159.79 1C1165.99 1 1170.98 7.30435 1170.98 15.0497V15.9503C1170.98 23.6956 1175.98 30 1182.17 30C1188.36 30 1193.36 23.6956 1193.36 15.9503V15.0497C1193.36 7.30435 1198.35 1 1204.55 1C1210.74 1 1215.73 7.30435 1215.73 15.0497V15.9503C1215.73 23.6956 1220.73 30 1226.92 30C1233.12 30 1238.11 23.6956 1238.11 15.9503V15.0497C1238.11 7.30435 1243.11 1 1249.3 1C1255.49 1 1260.49 7.30435 1260.49 15.0497V15.9503C1260.49 23.6956 1265.48 30 1271.68 30C1277.87 30 1282.86 23.6956 1282.86 15.9503V15.0497C1282.86 7.30435 1287.86 1 1294.05 1C1300.25 1 1305.24 7.30435 1305.24 15.0497V15.9503C1305.24 23.6956 1310.24 30 1316.43 30C1322.62 30 1327.62 23.6956 1327.62 15.9503V15.0497C1327.62 7.30435 1332.61 1 1338.81 1C1345 1 1349.99 7.30435 1349.99 15.0497V15.9503C1349.99 23.6956 1354.99 30 1361.18 30C1367.38 30 1372.37 23.6956 1372.37 15.9503V15.0497C1372.37 7.30435 1377.37 1 1383.56 1C1389.75 1 1394.75 7.30435 1394.75 15.0497V15.9503C1394.75 23.6956 1399.74 30 1405.94 30C1412.13 30 1417.12 23.6956 1417.12 15.9503V15.0497C1417.12 7.30435 1422.12 1 1428.31 1C1434.51 1 1439.5 7.30435 1439.5 15.0497V15.9503C1439.5 23.6956 1444.5 30 1450.69 30C1456.88 30 1461.88 23.6956 1461.88 15.9503V15.0497C1461.88 7.30435 1466.87 1 1473.07 1C1479.26 1 1484.26 7.30435 1484.26 15.0497V15.9503C1484.26 23.6956 1489.25 30 1495.44 30C1501.64 30 1506.63 23.6956 1506.63 15.9503V15.0497C1506.63 7.30435 1511.63 1 1517.82 1C1524.01 1 1529.01 7.30435 1529.01 15.0497V15.9503C1529.01 23.6956 1534 30 1540.2 30C1546.39 30 1551.39 23.6956 1551.39 15.9503V15.0497C1551.39 7.30435 1556.38 1 1562.57 1C1568.77 1 1573.76 7.30435 1573.76 15.0497V15.9503C1573.76 23.6956 1578.76 30 1584.95 30C1591.14 30 1596.14 23.6956 1596.14 15.9503V15.0497C1596.14 7.30435 1601.13 1 1607.33 1C1613.52 1 1618.52 7.30435 1618.52 15.0497V15.9503C1618.52 23.6956 1623.51 30 1629.7 30C1635.9 30 1640.89 23.6956 1640.89 15.9503V15.0497C1640.89 7.30435 1645.89 1 1652.08 1C1658.27 1 1663.27 7.30435 1663.27 15.0497V15.9503C1663.27 23.6956 1668.26 30 1674.46 30C1680.65 30 1685.65 23.6956 1685.65 15.9503V15.0497C1685.65 7.30435 1690.64 1 1696.83 1C1703.03 1 1708.02 7.30435 1708.02 15.0497V15.9508C1708.02 23.6961 1713.02 30.0005 1719.21 30.0005C1725.4 30.0005 1730.4 23.6961 1730.4 15.9508V15.0502C1730.4 7.30484 1735.39 1.00049 1741.59 1.00049C1747.78 1.00049 1752.78 7.30484 1752.78 15.0502V15.9508C1752.78 23.6961 1757.77 30.0005 1763.96 30.0005C1770.16 30.0005 1775.15 23.6961 1775.15 15.9508V15.0502C1775.15 7.30484 1780.15 1.00049 1786.34 1.00049C1792.53 1.00049 1797.53 7.30484 1797.53 15.0502V15.9508C1797.53 23.6961 1802.52 30.0005 1808.72 30.0005C1814.91 30.0005 1819.91 23.6961 1819.91 15.9508V15.0502C1819.91 7.30484 1824.9 1.00049 1831.09 1.00049C1837.29 1.00049 1842.28 7.30484 1842.28 15.0502V15.9508C1842.28 23.6961 1847.28 30.0005 1853.47 30.0005C1859.66 30.0005 1864.66 23.6961 1864.66 15.9508V15.0502C1864.66 7.30484 1869.65 1.00049 1875.85 1.00049C1882.04 1.00049 1887.04 7.30484 1887.04 15.0502V15.9508C1887.04 23.6961 1892.03 30.0005 1898.22 30.0005C1904.42 30.0005 1909.41 23.6961 1909.41 15.9508V15.0502C1909.41 7.30484 1914.41 1.00049 1920.6 1.00049C1926.79 1.00049 1931.79 7.30484 1931.79 15.0502V15.9508C1931.79 23.6961 1936.78 30.0005 1942.98 30.0005C1949.17 30.0005 1954.17 23.6961 1954.17 15.9508V15.0502C1954.17 7.30484 1959.16 1.00049 1965.35 1.00049C1971.55 1.00049 1976.54 7.30484 1976.54 15.0502M1976.54 15.0531V15.9537C1976.54 23.6991 1981.54 30.0034 1987.73 30.0034C1993.92 30.0034 1998.92 23.6991 1998.92 15.9537V15.0531C1998.92 7.30777 2003.91 1.00342 2010.11 1.00342C2016.3 1.00342 2021.3 7.30777 2021.3 15.0531V15.9537C2021.3 23.6991 2026.29 30.0034 2032.48 30.0034C2038.68 30.0034 2043.67 23.6991 2043.67 15.9537V15.0531C2043.67 7.30777 2048.67 1.00342 2054.86 1.00342C2061.05 1.00342 2066.05 7.30777 2066.05 15.0531V15.9537C2066.05 23.6991 2071.04 30.0034 2077.24 30.0034C2083.43 30.0034 2088.43 23.6991 2088.43 15.9537V15.0531C2088.43 7.30777 2093.42 1.00342 2099.61 1.00342C2105.81 1.00342 2110.8 7.30777 2110.8 15.0531V15.9537C2110.8 23.6991 2115.8 30.0034 2121.99 30.0034C2128.18 30.0034 2133.18 23.6991 2133.18 15.9537V15.0531C2133.18 7.30777 2138.17 1.00342 2144.37 1.00342C2150.56 1.00342 2155.56 7.30777 2155.56 15.0531V15.9537C2155.56 23.6991 2160.55 30.0034 2166.74 30.0034C2172.94 30.0034 2177.93 23.6991 2177.93 15.9537V15.0531C2177.93 7.30777 2182.93 1.00342 2189.12 1.00342C2195.31 1.00342 2200.31 7.30777 2200.31 15.0531V15.9537C2200.31 23.6991 2205.3 30.0034 2211.5 30.0034C2217.69 30.0034 2222.69 23.6991 2222.69 15.9537V15.0531C2222.69 7.30777 2227.68 1.00342 2233.87 1.00342C2240.07 1.00342 2245.06 7.30777 2245.06 15.0531V15.9542C2245.06 23.6996 2250.06 30.0039 2256.25 30.0039C2262.44 30.0039 2267.44 23.6996 2267.44 15.9542V15.0536C2267.44 7.30825 2272.43 1.00391 2278.63 1.00391C2284.82 1.00391 2289.82 7.30825 2289.82 15.0536V15.9542C2289.82 23.6996 2294.81 30.0039 2301 30.0039C2307.2 30.0039 2312.19 23.6996 2312.19 15.9542V15.0536C2312.19 7.30825 2317.19 1.00391 2323.38 1.00391C2329.57 1.00391 2334.57 7.30825 2334.57 15.0536V15.9542C2334.57 23.6996 2339.56 30.0039 2345.76 30.0039C2351.95 30.0039 2356.95 23.6996 2356.95 15.9542V15.0536C2356.95 7.30825 2361.94 1.00391 2368.13 1.00391C2374.33 1.00391 2379.32 7.30825 2379.32 15.0536V15.9542C2379.32 23.6996 2384.32 30.0039 2390.51 30.0039C2396.7 30.0039 2401.7 23.6996 2401.7 15.9542V15.0536C2401.7 7.30825 2406.69 1.00391 2412.89 1.00391C2419.08 1.00391 2424.08 7.30825 2424.08 15.0536V15.9542C2424.08 23.6996 2429.07 30.0039 2435.26 30.0039C2441.46 30.0039 2446.45 23.6996 2446.45 15.9542V15.0536C2446.45 7.30825 2451.45 1.00391 2457.64 1.00391C2463.83 1.00391 2468.83 7.30825 2468.83 15.0536V15.9542C2468.83 23.6996 2473.82 30.0039 2480.02 30.0039C2486.21 30.0039 2491.21 23.6996 2491.21 15.9542V15.0536C2491.21 7.30825 2496.2 1.00391 2502.39 1.00391C2508.59 1.00391 2513.58 7.30825 2513.58 15.0536V15.9542C2513.58 23.6996 2518.58 30.0039 2524.77 30.0039C2530.97 30.0039 2535.96 23.6996 2535.96 15.9542V15.0536C2535.96 7.30825 2540.95 1.00391 2547.15 1.00391C2553.34 1.00391 2558.34 7.30825 2558.34 15.0536V15.9542C2558.34 23.6996 2563.33 30.0039 2569.52 30.0039C2575.72 30.0039 2580.71 23.6996 2580.71 15.9542V15.0536C2580.71 7.30825 2585.71 1.00391 2591.9 1.00391C2598.1 1.00391 2603.09 7.30825 2603.09 15.0536V15.9542C2603.09 23.6996 2608.08 30.0039 2614.28 30.0039C2620.47 30.0039 2625.47 23.6996 2625.47 15.9542V15.0536C2625.47 7.30825 2630.46 1.00391 2636.66 1.00391C2642.85 1.00391 2647.84 7.30825 2647.84 15.0536V15.9542C2647.84 23.6996 2652.84 30.0039 2659.03 30.0039C2665.23 30.0039 2670.22 23.6996 2670.22 15.9542V15.0536C2670.22 7.30825 2675.21 1.00391 2681.41 1.00391C2687.6 1.00391 2692.6 7.30825 2692.6 15.0536V15.9542C2692.6 23.6996 2697.59 30.0039 2703.78 30.0039C2709.98 30.0039 2714.97 23.6996 2714.97 15.9542V15.0536C2714.97 7.30825 2719.97 1.00391 2726.16 1.00391C2732.36 1.00391 2737.35 7.30825 2737.35 15.0536V15.9542C2737.35 23.6996 2742.34 30.0039 2748.54 30.0039C2754.73 30.0039 2759.73 23.6996 2759.73 15.9542V15.0536C2759.73 7.30825 2764.72 1.00391 2770.92 1.00391C2777.11 1.00391 2782.1 7.30825 2782.1 15.0536V15.9542" stroke="#F9AA00" stroke-opacity="0.25" stroke-miterlimit="10"/>
</svg>
