<svg width="1440" height="240" viewBox="0 0 1440 240" fill="none" xmlns="http://www.w3.org/2000/svg">
<g clip-path="url(#clip0_22_133)">
<rect width="1440" height="240" fill="#DBCFB2"/>
<path d="M1162.5 0H0V240H120.179L1162.5 0Z" fill="#BDB8AB"/>
<rect x="104" y="33" width="28" height="130" fill="#DBCFB2"/>
<path d="M-11 138.503V0L219 210L-11 138.503Z" fill="#B94938"/>
<ellipse cx="73.0952" cy="33.3522" rx="18.0952" ry="17.3522" fill="black"/>
<path d="M358.56 177.061L213.68 68.7657L235.412 110.505L341.843 203.571L358.56 177.061Z" fill="#121212" stroke="black"/>
<path d="M206.974 59.9095L342.989 203.597L294.537 238.081L206.974 59.9095Z" fill="#B94938"/>
<path d="M1440 0H1164.19L1061 240H1440V0Z" fill="#121212"/>
<path d="M616.5 19.5L1130 79.5L1068.5 223.5L616.5 19.5Z" fill="#B94938"/>
<rect x="12" y="173" width="23" height="59" fill="#B94938"/>
<rect x="43" y="184.748" width="6.74807" height="40" transform="rotate(-90 43 184.748)" fill="#B94938"/>
<rect x="43" y="201.748" width="6.74807" height="40" transform="rotate(-90 43 201.748)" fill="#B94938"/>
<rect x="195" y="226" width="4" height="122" transform="rotate(90 195 226)" fill="#DBCFB2"/>
<rect x="196" y="208" width="4" height="105" transform="rotate(90 196 208)" fill="#DBCFB2"/>
<rect x="194" y="217" width="5" height="149" transform="rotate(90 194 217)" fill="#DBCFB2"/>
<rect width="5.13403" height="143.61" transform="matrix(0.755596 -0.655038 0.64593 0.763397 143 80.363)" fill="#DBCFB2"/>
<rect width="5.13403" height="71.2007" transform="matrix(0.755596 -0.655038 0.64593 0.763397 183 142.363)" fill="#121212"/>
<rect width="5.13403" height="175.399" transform="matrix(0.755596 -0.655038 0.64593 0.763397 136.695 51.8185)" fill="#121212"/>
<rect width="5.13403" height="87.987" transform="matrix(0.755596 -0.655038 0.64593 0.763397 166.514 135.139)" fill="#DBCFB2"/>
<rect width="5.13403" height="99.0782" transform="matrix(0.755596 -0.655038 0.64593 0.763397 163 63.363)" fill="#DBCFB2"/>
<ellipse cx="1394.76" cy="191.416" rx="44.7619" ry="42.4164" fill="#B94938"/>
<rect width="5.91032" height="61.7012" transform="matrix(0.794336 0.607478 -0.598163 0.801374 1415.8 172.964)" fill="#EFE5CC"/>
<rect width="5.91032" height="55.944" transform="matrix(0.794336 0.607478 -0.598163 0.801374 1378.46 188.397)" fill="#EFE5CC"/>
<rect width="5.91032" height="18.3843" transform="matrix(0.794336 0.607478 -0.598163 0.801374 1427.04 172)" fill="#EFE5CC"/>
<rect width="2.02347" height="71.0109" transform="matrix(0.794336 0.607478 -0.598163 0.801374 1419.33 118.883)" fill="#EFE5CC"/>
<rect width="2.02347" height="71.0109" transform="matrix(0.794336 0.607478 -0.598163 0.801374 1430.76 114.784)" fill="#EFE5CC"/>
<rect width="2.9102" height="31.3155" transform="matrix(0.794336 0.607478 -0.598163 0.801374 1408.92 155.273)" fill="#EFE5CC"/>
<rect width="5.91032" height="100.095" transform="matrix(0.794336 0.607478 -0.598163 0.801374 1413.87 111)" fill="#EFE5CC"/>
<ellipse cx="1242.95" cy="147.121" rx="80.9524" ry="77.1208" fill="#EFE5CC"/>
<rect width="5.91032" height="35.2989" transform="matrix(0.794336 0.607478 -0.598163 0.801374 1180.48 184.352)" fill="#EFE5CC"/>
<rect width="5.91032" height="61.7012" transform="matrix(0.794336 0.607478 -0.598163 0.801374 1191.91 184.352)" fill="#EFE5CC"/>
<rect width="5.91032" height="35.2989" transform="matrix(0.794336 0.607478 -0.598163 0.801374 1180.48 167)" fill="#EFE5CC"/>
<rect width="5.91032" height="158.367" transform="matrix(0.794336 0.607478 -0.598163 0.801374 1383.73 -34)" fill="#EFE5CC"/>
<rect width="5.91032" height="88.7683" transform="matrix(0.794336 0.607478 -0.598163 0.801374 1353.53 59.509)" fill="#EFE5CC"/>
<rect width="5.91032" height="88.7683" transform="matrix(0.794336 0.607478 -0.598163 0.801374 1333.1 63)" fill="#EFE5CC"/>
<rect width="5.91032" height="35.2989" transform="matrix(0.794336 0.607478 -0.598163 0.801374 1332.97 111.998)" fill="#EFE5CC"/>
<rect width="5.91973" height="73.6326" transform="matrix(0.706837 -0.707376 0.698746 0.71537 1180.86 2.1875)" fill="#B94938"/>
<rect width="3.27838" height="67.5536" transform="matrix(0.706837 -0.707376 0.698746 0.71537 1161.81 22.4917)" fill="#B94938"/>
<rect width="3.27838" height="53.4768" transform="matrix(0.706837 -0.707376 0.698746 0.71537 1158 30.2036)" fill="#B94938"/>
<rect width="5.91973" height="139.672" transform="matrix(0.706837 -0.707376 0.698746 0.71537 1170.38 10.8638)" fill="#EFE5CC"/>
<rect width="3.27838" height="44.1927" transform="matrix(0.706837 -0.707376 0.698746 0.71537 1164.63 17.6716)" fill="#EFE5CC"/>
</g>
<defs>
<clipPath id="clip0_22_133">
<rect width="1440" height="240" fill="white"/>
</clipPath>
</defs>
</svg>
